<?xml version="1.0" encoding="utf-8"?>
<!-- Generator: Adobe Illustrator 25.2.1, SVG Export Plug-In . SVG Version: 6.00 Build 0)  -->
<svg version="1.1" id="Layer_1" xmlns="http://www.w3.org/2000/svg" xmlns:xlink="http://www.w3.org/1999/xlink" x="0px" y="0px"
	 viewBox="0 0 787.1 442.8" style="enable-background:new 0 0 787.1 442.8;" xml:space="preserve">
<style type="text/css">
	.st0{fill:none;stroke:#8DC63F;stroke-width:3;stroke-miterlimit:10;}
	.st1{clip-path:url(#SVGID_2_);}
	.st2{fill:none;stroke:#A8509F;stroke-width:3;stroke-miterlimit:10;}
	.st3{clip-path:url(#SVGID_4_);}
	.st4{clip-path:url(#SVGID_6_);}
	.st5{clip-path:url(#SVGID_8_);}
	.st6{clip-path:url(#SVGID_10_);}
	.st7{fill:none;stroke:#F26522;stroke-width:3;stroke-miterlimit:10;}
	.st8{fill:#6D6D6D;}
	.st9{fill:#ADADAD;}
	.st10{fill-rule:evenodd;clip-rule:evenodd;fill:#010101;}
</style>
<g id="background">
	
		<image style="overflow:visible;enable-background:new    ;" width="1925" height="1083" id="background-2" xlink:href="1599C874D17DFA62.png"  transform="matrix(0.4089 0 0 0.4089 0 0)">
	</image>
</g>
<g id="ellipses">
	<g>
		<circle class="st0" cx="442.1" cy="224.1" r="23.8"/>
		<circle class="st0" cx="441.6" cy="222.8" r="11.9"/>
		<circle class="st0" cx="442.1" cy="224.1" r="35.8"/>
	</g>
	<g>
		<circle class="st0" cx="348.8" cy="137.1" r="23.8"/>
		<circle class="st0" cx="348.2" cy="135.7" r="11.9"/>
		<circle class="st0" cx="348.8" cy="137.1" r="35.8"/>
	</g>
	<g>
		<circle class="st0" cx="748.9" cy="160.5" r="23.8"/>
		<circle class="st0" cx="748.4" cy="159.1" r="11.9"/>
		<circle class="st0" cx="748.9" cy="160.5" r="35.8"/>
	</g>
	<g>
		<circle class="st0" cx="63" cy="157.7" r="23.8"/>
		
			<ellipse transform="matrix(0.1599 -0.9871 0.9871 0.1599 -101.8647 192.9281)" class="st0" cx="62.4" cy="156.3" rx="11.9" ry="11.9"/>
		<circle class="st0" cx="63" cy="157.7" r="35.8"/>
	</g>
	<g>
		<circle class="st0" cx="477.5" cy="330.9" r="23.8"/>
		<circle class="st0" cx="477" cy="329.5" r="11.9"/>
		
			<ellipse transform="matrix(0.1602 -0.9871 0.9871 0.1602 74.4125 749.2614)" class="st0" cx="477.5" cy="330.9" rx="35.8" ry="35.8"/>
	</g>
	<g>
		<circle class="st0" cx="82.8" cy="234.7" r="23.8"/>
		<circle class="st0" cx="82.2" cy="233.3" r="11.9"/>
		<circle class="st0" cx="82.8" cy="234.7" r="35.8"/>
	</g>
	<g>
		<circle class="st0" cx="341.5" cy="217.3" r="23.8"/>
		<circle class="st0" cx="340.9" cy="215.9" r="11.9"/>
		<circle class="st0" cx="341.5" cy="217.3" r="35.8"/>
	</g>
	<g>
		<defs>
			<rect id="SVGID_1_" x="421.3" y="76.8" width="100.6" height="56.9"/>
		</defs>
		<clipPath id="SVGID_2_">
			<use xlink:href="#SVGID_1_"  style="overflow:visible;"/>
		</clipPath>
		<g class="st1">
			
				<ellipse transform="matrix(0.3827 -0.9239 0.9239 0.3827 219.8472 480.0412)" class="st2" cx="469.1" cy="75.5" rx="23.8" ry="23.8"/>
			<circle class="st2" cx="469.5" cy="76.9" r="11.9"/>
			<circle class="st2" cx="469" cy="75.5" r="35.8"/>
		</g>
	</g>
	<g>
		<defs>
			<rect id="SVGID_3_" x="165.7" y="80.2" width="100.6" height="56.9"/>
		</defs>
		<clipPath id="SVGID_4_">
			<use xlink:href="#SVGID_3_"  style="overflow:visible;"/>
		</clipPath>
		<g class="st3">
			<circle class="st2" cx="213.4" cy="78.8" r="23.8"/>
			<circle class="st2" cx="213.9" cy="80.2" r="11.9"/>
			<circle class="st2" cx="213.4" cy="78.8" r="35.8"/>
		</g>
	</g>
	<g>
		<defs>
			<rect id="SVGID_5_" x="616.5" y="78.7" width="100.6" height="56.9"/>
		</defs>
		<clipPath id="SVGID_6_">
			<use xlink:href="#SVGID_5_"  style="overflow:visible;"/>
		</clipPath>
		<g class="st4">
			
				<ellipse transform="matrix(0.3827 -0.9239 0.9239 0.3827 338.5608 661.4652)" class="st2" cx="664.3" cy="77.4" rx="23.8" ry="23.8"/>
			
				<ellipse transform="matrix(0.7071 -0.7071 0.7071 0.7071 139.0224 493.1593)" class="st2" cx="664.8" cy="78.8" rx="11.9" ry="11.9"/>
			<circle class="st2" cx="664.2" cy="77.4" r="35.8"/>
		</g>
	</g>
	<g>
		<defs>
			<rect id="SVGID_7_" x="-0.1" width="788.8" height="445.5"/>
		</defs>
		<clipPath id="SVGID_8_">
			<use xlink:href="#SVGID_7_"  style="overflow:visible;"/>
		</clipPath>
		<g class="st5">
			<circle class="st0" cx="784" cy="276" r="23.8"/>
			<circle class="st0" cx="783.5" cy="274.6" r="11.9"/>
			<circle class="st0" cx="784" cy="276" r="35.8"/>
		</g>
	</g>
	<g>
		<defs>
			<rect id="SVGID_9_" x="6.6" y="78.7" width="100.6" height="56.9"/>
		</defs>
		<clipPath id="SVGID_10_">
			<use xlink:href="#SVGID_9_"  style="overflow:visible;"/>
		</clipPath>
		<g class="st6">
			<circle class="st7" cx="54.3" cy="77.5" r="23.8"/>
			<circle class="st7" cx="54.9" cy="78.7" r="11.9"/>
			<circle class="st7" cx="54.3" cy="77.4" r="35.8"/>
		</g>
	</g>
</g>
<g id="icons">
	<g id="wind">
		<path d="M56.3,78.7c-2.6-0.5-5-1.8-6.9-3.7c-2.5-2.8-4.1-6.3-4.4-10.1c-0.1-0.8,0.4-1.5,1.2-1.7c0.7-0.2,1.5,0.2,1.8,0.9v0.2
			c0.3,1.6,0.8,3.2,1.4,4.8c1.3,3.2,3.4,5.6,7,6.3c6.4,1.2,12.7-4.7,11.3-11.3c-0.6-2.8-1.6-5.4-4.2-6.9c-1.4-0.8-2.9-1.3-4.5-1.3
			H14.5c-1,0.1-2-0.2-2.7-1v-1.3c0.6-0.7,1.6-1.1,2.5-1h44.9c8.8,0,17.7,0.1,26.5,0c4.1-0.2,7.8,2.6,8.6,6.7l0.3,0.8v2.6
			c-0.2,0.3-0.3,0.7-0.4,1.1c-1.4,4.4-6.1,6.7-10.5,5.3c0,0,0,0,0,0l-1.5-0.7c-2.8-1.6-3.9-4.3-4.4-7.2c-0.3-1.2,0.2-2,1.1-2.2
			s1.7,0.3,2,1.5c0.1,1.1,0.5,2.1,1,3.1c1.4,2.7,4,3.5,6.8,2.1c2-1.1,3.1-3.4,2.6-5.6c-0.7-2.9-2.2-4.2-4.9-4.2h-18
			c-0.4,0-0.8-0.1-1.1,0.2c2.3,3.3,3,4.8,3.5,7.5c0.9,5-0.9,9-4.6,12.2c-1.9,1.4-4.1,2.4-6.4,2.9H56.3z"/>
		<path d="M71.8,23c2.3,0.5,4.5,1.5,6.3,3c3.5,3.2,5.3,7,4.5,11.8s-1.9,6.7-5,8.9c-2.1,1.6-4.7,2.4-7.4,2.3H13.4
			c-0.8,0-1.4-0.6-1.4-1.4l0,0l0,0c-0.1-0.7,0.4-1.4,1.1-1.6h57.1c3.9-0.1,7.4-2.6,8.7-6.3c2-5.1-0.5-10.8-5.5-12.9l-1.3-0.4
			c-4.2-1.1-8.2,0.8-10.4,4.8C60.8,33,60.2,35,59.8,37c0.1,0.9-0.5,1.7-1.4,1.8c0,0,0,0,0,0c-0.9,0.1-1.7-0.5-1.8-1.4c0,0,0,0,0,0
			c0-0.2,0-0.5,0.1-0.7c0.8-5,2.6-9.3,7-12.1c1.3-0.7,2.7-1.3,4.2-1.6H71.8z"/>
		<path d="M31.3,40.8H17.6c-0.7-0.2-1.1-0.9-1-1.6c0-0.8,0.5-1.2,1.3-1.4h24.8c3.4,0,5.4-2.3,5.3-5.9s-2.7-4.8-5.7-4.6
			s-3.2,1.4-4,3.1c-0.4,0.9-0.6,1.9-0.8,2.9c-0.3,0.9-1,1.5-1.8,1.3c-0.8,0-1.4-0.6-1.4-1.4v0c0-0.2,0.1-0.3,0.1-0.4
			c0.2-2.6,1.4-5,3.3-6.8c2.6-2.3,6.4-2.5,9.4-0.7c3.1,1.8,4.7,5.3,4,8.8c-0.5,3.1-2.8,5.7-5.8,6.6c-0.6,0.2-1.2,0.2-1.8,0.2
			L31.3,40.8z"/>
	</g>
	<g id="vessels">
		<path id="fishing-ship" d="M314.1,27.1c0.2,0.5,0.4,1,0.7,1.5c5.3,5.6,10.6,11.2,16.3,16.6l-0.8-2.4l2.4-0.4v-7.2h0.7v7.3h3.4
			l0.9-7.7h0.7l-0.3,7.4c4,1.1,5.5,5.1,8.8,7.1l0.4-2.7c1.3,2.1-0.6,6.4,4.8,5.2v-6.6c2.1,2.2-0.7,5.6,2.4,7.4
			c-1.4,0.8-1.9,2.6-1.1,4c0.1,0.2,0.2,0.4,0.4,0.5c2.1,2.4,4.1,4.9,6.3,7.2c2.2,2.3,1.9,1.1,2.8,1.8s4.3,3.5,6.6,5.2
			c0.7,0.7,1.7,1.1,2.7,1.2c5.2-0.5,10.3-1.2,15.4-1.9h0.5v2.5c-1.1,0.8-2.2,1.8-3.1,2.8c-0.6,0.8-0.9,1.7-1,2.6
			c-0.1,1.8,0,3.5,0,5.6c-4.3,0.5-8.6,1.1-12.9,1.5l-22.8,2c-3.8,0.3-7.6,0.4-11.4,0.5c-8.3,0.1-16.5,0-24.8,0
			c-2.4,0-4.8-0.2-7.1-0.6c-0.5,0-1.4-1-1.4-1.5c-0.1-3.8,0-7.5,0-11c7,0.2,13.8,0.5,20.7,0.5c0.6,0,1.5-1.1,1.7-1.8
			c1.1-5.4,2.1-10.8,2.9-16.3c0.1-1.2-1.1-2.7-2.1-3.7L311,36.3l-3.4-3.9c-0.4-0.6-0.4-1.3-0.1-1.9l21.7,24.2c0.6-2.1,1-4.2,1.2-6.3
			c-0.2-1.2-0.7-2.2-1.5-3.1c-2.5-2.9-5.2-5.6-7.8-8.4l-8-8.5c-0.3-0.4-0.4-0.8-0.5-1.3L314.1,27.1z M327.2,73.3
			c2.6-3.9,6.2-5.9,11.4-4.7c-1.6-4.8-5.7-7.2-8.2-11l-0.6,0.2L327.2,73.3z M330.4,53.3c0.1,1.1-0.2,2.5,0.4,3.2
			c2.1,2.5,4.4,4.9,6.7,7.3l1.3,0.9C340,55.2,337.9,52.2,330.4,53.3L330.4,53.3z M338.9,52v-8.2h-6.7C331.9,48,335.3,52.1,338.9,52z
			 M340.3,53.2c-0.5,3.5,3.4,7.7,6.6,7.1v-7.1H340.3z M347.1,52l-6.9-7.6V52H347.1z M348.2,53.1v7.3h3.6
			C353.2,56.7,350.3,55.3,348.2,53.1z M334.2,52l-2.9-3.7V52H334.2z M343.1,61l-2.9-3.5v3.8L343.1,61z"/>
		<path id="container-ship" d="M279.5,62.5h-1.2V49.3c0-0.2-0.1-0.3-0.3-0.3h-7.6c-0.2,0-0.3-0.1-0.3-0.3V38.5c0-0.1,0-0.1,0.1-0.1
			l0,0l1.9-2.2l0.3-0.2h5.6c0.2,0,0.3-0.1,0.3-0.2v-2.7c0-0.2-0.1-0.3-0.3-0.3h-10c-0.2,0-0.3-0.1-0.3-0.3v-3.1
			c0-0.2-0.1-0.3-0.3-0.3h-8.8l-1.9-7.7h1.5c0.2,0,0.3-0.1,0.3-0.3v-0.3c0-0.2-0.1-0.3-0.3-0.3h-1.6v-2.8h0.4c0.2,0,0.3-0.1,0.3-0.3
			v-0.3c0-0.2-0.1-0.3-0.3-0.3h-0.4v-1.6l-0.3-0.2h-0.7c-0.2,0-0.3,0.1-0.3,0.2v1.6h-0.4c-0.2,0-0.3,0.1-0.3,0.3v0v0.3
			c0,0.2,0.1,0.3,0.3,0.3l0,0h0.4v2.8h-1.6c-0.2,0-0.3,0.1-0.3,0.3v0v0.3c0,0.2,0.1,0.3,0.3,0.3l0,0h1.4l-1.9,7.7h-6.6
			c-0.2,0-0.3,0.1-0.3,0.3v0v3.1c0,0.2-0.1,0.3-0.3,0.3l0,0h-6.9c-0.2,0-0.3,0.1-0.3,0.3c0,0,0,0,0,0v2.7c0,0.1,0.1,0.2,0.3,0.2h5
			l0.2,0.2l1.1,1.2v8.1h-16v5.6H223v-5.6h-18.7v5.6h-11.9v5.6h-4.5v-5.6h-18.7v5.6h-4.9v5.6c-2-1-4-1.8-6.2-2.3h-0.3v-5.8h1.2v-0.6
			h-1.2v-4.5h1.2v-0.6h-1.2v-2h-1.1v2h-1.2v0.6h1.2v4.5h-1.2v0.6h1.2V60c-0.9,0-1.7,0-2.6,0.2c-9,1-14.4,5.9-13.9,5.9
			s5,4.2,7.8,17.7c0.3,1.4,42.8,1.2,76.3-1.8l37.9-3.5h0.1c0.8-0.4,13.9-6.5,14.5-6.9c0.8-1,1.5-2.1,2-3.3c0.2-0.5,0.7-4.3,0.9-5.4
			S279.6,62.5,279.5,62.5z"/>
	</g>
	<path id="snapping-shrimp" d="M86.6,232.1c-1.4-1.8-3.3-3.1-5.5-3.8c-1.9-0.8-3.8-1.5-5.7-2c-1.4-0.3-5.2,0.1-8.5,0.7
		c0.6-0.3,1.3-0.6,1.9-0.8l2.1-0.2h4.5l0.5-0.3l2.1-1.1l8.3-4.9l-8.5,4.9l-2.2,1.1l-0.5,0.3h-2.3l3.7-2.4l1-0.8l0.5-0.9l1.1-2.1
		l3.4-7.8l-0.3,0.4h0.2l-8.2,11.2l-1.6,2.1c-1.5,0-3.1,0-4.6,0.2h-0.6c-0.3,0-0.8-0.2-0.3-0.3h0.6v-0.2c-0.7-0.4-1.6-0.7-2.4-0.9
		l-2.6-0.2l-3.5-0.6l-6.5-1.8c-0.8-0.4-1.9-0.7-2.8-1.2l-2.2-0.9l-1.4-0.4c-1.2-0.4-2.1-1.2-3.2-1.3h-1.4c-0.7-0.3-1.4-0.4-2.1-0.4
		h-1.4c-0.5,0-1.1,0-1.6,0.2h-0.1c-0.5,0.2-0.9,0.3-1.4,0.4h-2.7l-0.8,0.2l-1.1,0.2l-1.1,0.2l-1,0.3l-0.4,0.4c-0.2,0.2,0,0.4,0,0.5
		s-0.7,0.5-0.7,0.9c-0.1,0.2-0.1,0.5,0,0.7h0.2v0.2l-0.2,0.4c-0.1,0.2-0.1,0.5-0.1,0.7c0,0.2,0.1,0.5,0.3,0.6
		c0.1,0.2,0.3,0.1,0.1,0.4s-0.1,1.6,0.5,1.9s0.6,1.8,1,1.6c0.4-0.5,0.7-1.1,0.7-1.7c0.5-0.8,1.1-1.5,1.8-2.2c0.3-0.4,2.4-1.2,3-1.7
		h1.1c0.3,0.2,0.7,0.5,0.9,0.8c0.3,0.2,0.5,0.5,0.7,0.8c0.3,0.6,0.6,1.2,0.8,1.9c0.3,0.8,0.9,1.6,1.5,2.2c0.7,0.6,0.7-1.1,0.5-1.7
		l-0.5-1.9c0.4,0.7,0.8,1.4,1.1,2.2c1,1.6,1.6,2.2,2.4,2.5s0.2-2.5,0.2-3.3c0.3,1.2,0.8,2.2,1.5,3.2c0.3,0.3,0.6,0.5,1,0.7
		c0.3,0,0.5-1.3,0.1-2.3l1.3,1.4l0,0c0.4,0.5,0.8,0.9,1.3,1.3c0.3,0.6,4.4,3.2,5,3.6s-0.8,1.3-1.6,3.1c-0.4,1.5-0.6,3.1-0.4,4.6
		c0.1,0.2-0.5,0.8-1,1.4s1.1-0.1,1.6-1.4s0.5-4.2,0.8-4.5s1.7-2.5,1.6-3.6l5,3.1c0.6,0.4-0.9,1-1.9,2.9c-0.5,1.4-0.8,2.8-0.8,4.3
		c0,0.3-0.6,0.6-1.2,1.3c0.8,0,1.6-0.5,1.9-1.3c0.3-0.5,0.7-3.9,1.1-4.2s2.3-2.6,1.8-3.7c-0.4-0.5-0.9-1-1.5-1.3
		c1.9,0.7,5.2,1.4,5.6,1.6s-0.6,1.3-0.7,3.2c-0.1,1.5,0.2,3,0.7,4.4c0.2,0.2-0.3,0.7-0.7,1.5c-0.4,0.8,1.1-0.4,1.2-1.7
		s-0.6-3.9-0.5-4.2s1.3-3.1,0.7-3.9s-4-1.4-5.9-1.9h1.9c1.4,0.2,2.7,0.3,4.1,0.3c0.5-0.2,1.1,0.1,1.8,0.1s1.6-0.1,1.6,0.1
		s0.1,0.5,0.1,0.8l0.5,0.7c0.7,0.8,1.4,1.5,2.2,2.2c0.6,0.5,1.2,1.1,1.7,1.8c0.1,0.1,0.2,0.2,0.2,0.3v0.4c-0.3,0.7,0.1,2.6,0.3,2.3
		c0.3-0.8,0.5-1.7,0.5-2.6c0.6,0.1,0.6,0.9,0.8,1.3c0.1,0.7-0.1,1.4-0.4,2c0.7,0.1,1-0.7,1.1-0.9c0.3-0.6,0.3-1.3,0.2-2
		c-0.1-0.5-0.3-0.9-0.6-1.3c-0.3-0.4,0.3-0.3,0.1-1.5c-0.1-0.5-0.4-0.9-0.9-1h-0.2c0-0.2,0,0,0.2,0s0-0.6-0.5-1.1
		c-0.5-0.9-1.3-1.7-2.2-2.2c-0.5-0.4-1.1-0.4-0.9-0.6s-1-0.7-1.8-1c-0.9-0.2-1.8-0.4-2.7-0.4c-1.9,0-3.6,0.6-2.8,0.3l1.4-0.5
		l0.8-0.4c3.9,0.9,7.8,1.6,11.8,2c1.9,0.2,1-0.6,1.5-0.3c0.6,0.3,1.3,0.5,2,0.6l2.7,0.8c0.2,0.2,0.5,0.2,0.8,0.2
		c0.3,0,0.5-0.2,0.6-0.4c-0.6-0.1-1.1-0.3-1.6-0.6c-0.4-0.1-0.7-0.4-0.9-0.7c1.1,0.2,1.9,0.6,3,0.9l0.6-0.5
		C86.5,231.9,86.6,232.2,86.6,232.1z"/>
	<g id="seal-bombs">
		<path id="vessels-2" d="M467.8,7h1.2c0.3,5.4,0.7,10.9,1,16.3c0.1,0.3,0.2,0.7,0.4,1l3.9,4.7l0.6,0.4v-1.9h2.6v2.3l1,1.2l-2.2,0.2
			c0.1,0.2,0.1,0.2,0.1,0.3l6.9,8.3c0.1,0.2,0.3,0.4,0.6,0.4l3.9-0.3v-0.4l-1.3-0.4v-0.9h5.2c0.3,0.8-0.5,0.9-0.7,1.3
			s-1.7,1.2-2.8,1.3l-4,0.3l7.3,8.7c0.2-0.3,0.3-0.4,0.3-0.6c0.2-1.8,1.7-3.1,3.5-2.9c0,0,0.1,0,0.1,0l0.5-0.2v-1.7
			c-0.1-4.5-0.2-9-0.2-13.6c-0.1-0.2,0.1-0.5,0.2-0.7h0.4v16l2.2-0.3V34.9h0.3l0.3,10.8l4.8-0.7c0-1,0-1-0.7-1.6
			c-0.3-0.3-0.6-0.6-0.8-1h3.4c0.2,1.2-2,1-1.2,2.5l3-0.4c-0.2,1.2-0.4,2.5-0.7,3.7c-0.3,0.9-0.1,1.9,0.3,2.7c0.5,1,0.8,2.1,1.3,3.3
			h-1.8l0.3,3.7l4.9-0.7l11.6-1.7v0.6c-0.1,0.1-0.2,0.3-0.2,0.5c-1.1,5.6-2,11.2-3.1,16.8c-0.8,3.9,0.1,3.5-4.4,3.9
			c-7.9,0.6-15.9,0.8-23.9,1.2l-3.3,0.2h-29.2c-6.4-0.2-12.9-0.3-19.3-0.7s-10.4-1-15.6-1.6c-1,0-1.9-0.8-2-1.8
			c-0.2-0.8-0.2-1.7-0.2-2.5c0.2-2.3,0.6-4.5,1-6.8h-0.7c-2.3,0.2-4.4-1-5.5-3c-0.5-0.9-1-1.8-1.4-2.8c-0.5-1-0.7-2.1-1.1-3.1
			l19.6-1.7L433.7,30c-1.7-0.4-2.2-0.6-2.3-1.4s-0.6-3.9,0.4-5.8l-0.9-0.2v-1.3h5.1c1.6-0.1,3.2,0.4,4.8,0.1s0.3,0,0.4,0.1L443,22
			l7.4,0.7l14.5,1.3h1.1l1.8-0.8v-0.7l-0.6-9.4c0-0.3,0-0.7,0.1-1c0.1-0.3,0.4-0.6,0.3-0.9s-0.1-2.2-0.1-3.3S467.7,7.2,467.8,7z
			 M448.5,55.2v-0.5l-6.6-25.9c-0.1-0.2-0.2-0.5-0.4-0.6s-1.3-1.2,0-2.3c-0.8-0.7-1.6-1.4-2.3-2.2c-1-1.3-2.2-1.1-3.4-1l0.6,2.1
			c0.1,0.7,0.2,1.4,0.2,2.1c0.1,2.3-0.1,2.6-2.4,3.1l0.5,24.5l9.9-2c0.1,0.5,0.2,0.9,0.4,1.4c0.1,0.2,0.2,0.5,0.4,0.6L448.5,55.2z
			 M468,25.4c-0.4,0.1-0.7,0.1-1.1,0c-0.8-0.5-1.5-0.1-2.2,0.1l-14.1,5.2c-1.2,0.5-1.3,1-0.4,1.9l15.6,15.6l1,0.9
			c0.3-0.2,0.7-0.3,1.1-0.4c0.5-0.1,1-0.1,1.5,0C469,40.8,468.5,33.1,468,25.4z M464.1,59.1l0.2-0.2l-21.6-30.1v0.8
			c2.1,8.4,4.3,16.8,6.5,25.2c0,0.3,0.5,0.7,0.8,0.8l9.7,2.4L464.1,59.1z M441.2,23.4l6,6.2c0.8,0.8,1.9,1.1,3,0.7
			c3.6-1.2,7-2.6,10.6-3.9l4.9-1.8l-0.9-0.2l-21.1-1.9C442.7,22.4,441.6,22.2,441.2,23.4z M448.8,36.4c0,0.1,0,0.1,0.1,0.1l0,0
			c5.2,7.3,10.4,14.6,15.7,21.8c0.3,0.3,0.7,0.5,1.1,0.6c0.9,0.2,1.7,0.4,2.6,0.6c0.8,0.3,0.7,1.1,0,1.6l-1.6,0.6
			c1.1,0.3,2.2,0.4,2.2,1.8h1.5l-0.3-4.4c-1.5-0.3-1.8-0.6-1.7-1.4c0-0.4-0.1-0.9-0.4-1.2l-12.4-15c-1.5-1.9-3.1-3.8-4.5-5.4
			L448.8,36.4z M471.1,42.1l0.9,0.6c4.9,2.4,9.4,5.5,14.5,7.4c1.4,0.6,2.8,0.4,4.3,0.5l-0.3-0.5l-7-8.5c-0.4-0.2-0.8-0.4-1.2-0.4
			l-10,0.7L471.1,42.1z M473.7,34.5l0.2,0.2c-0.3,0.3-0.5,0.8-0.8,0.9c-0.7,0.2-1.5,0.2-2.2,0.2c0.1,1.7,0.2,3.4,0.4,5.3l11.1-0.8
			c-2.6-3-4.9-5.9-7.3-8.8l-0.7-0.2l-3.8,0.2l0.2,3L473.7,34.5z M463,59.3L449.4,56c0.4,1.4,0.7,2.7,1,3.9s0.5,0.8,1,1.2
			s2,1.5,3,2.2c0.2,0.2,0.5,0.4,0.8,0.4h7c0.3-0.6,0.4-1.1,0.8-1.4c0.4-0.3,0.9-0.5,1.4-0.6C462.2,60.8,462,60.6,463,59.3z
			 M475.1,52.6v0.3l6.1-0.7c0.9-0.2,1.8-0.7,2.4-1.4c-4.1-2.5-8.2-5-12.3-7.7l0.9,14.1c1.8-1.2,0.5-2.9,1.2-4.1l1.1-0.3
			c-0.5-0.7-1.8-1.2-0.6-2.2c0.5-0.5,1.2-0.5,1.7,0c0,0,0.1,0.1,0.1,0.1C476.6,51.7,475.6,52.1,475.1,52.6z M454.7,38.9l-0.3,0.3
			l14.4,17.3c0.2,0.3,0.7,0.3,1.1,0.5c0.3-1.6-0.3-3.3-1.6-4.4c-2-1.8-3.9-3.7-5.8-5.7L454.7,38.9z M443.5,59.6l6.4,0.7
			c-0.3-1.3-0.6-2.6-1-3.9c-0.1-0.3-0.3-0.6-0.6-0.7l-3.1-0.7L443.5,59.6z M442.9,27.7l-0.2,0.2l5.5,7.7l1.1-1.5L442.9,27.7z
			 M470.5,30.4h3.6l-3.7-4.5h-0.2L470.5,30.4z M432.5,24.6c0,0.9,0.6,1.6,1.5,1.8c0.9-0.1,1.5-0.9,1.5-1.8c-0.1-1-0.7-1.7-1.5-1.7
			C433.2,23,432.5,23.7,432.5,24.6z M484.6,50.4V50l-5-2.6v0.2l4.4,2.7L484.6,50.4z M469.5,50.1H468l1.6,1.6L469.5,50.1z"/>
		<path id="path5325" class="st8" d="M448.5,68.8l0.9,0.4l0.5,0.2l0.8,1.3l1.1,1.6l-1.3,0.8v-0.6l-0.2-0.5l-0.2-0.4l-0.9-0.8
			l-1.2-0.9L448.5,68.8z"/>
		<path id="path5329" class="st9" d="M446.9,73l-0.4,0.8l-0.6-1l-0.7-1.1l-0.2,0.6l-0.3,0.7l-0.5-0.7l-0.5-0.6l-0.6,0.5l-0.6,0.5
			L442,72l-0.7-0.8l-1.3,1.1l-1.2,0.9l0.3-1.1l0.5-1.6v-0.4l-1.7,0.7l-1.7,0.7l1.2-1.3l1.3-1.2h-0.2l-2-0.4l-1.9-0.5h0.1l1.8-0.3
			l1.9-0.4h0.1l-0.8-1.1l-0.7-1.2l1.9,0.6l1.9,0.5l-0.3-1.5l-0.3-1.6l1.3,1.2l1.4,1.3l0.5-0.6l0.4-0.6h0.1l0.2,0.5v0.4h0.1l0.9-0.4
			l0.8-0.4V66l1.9-1l1.9-1v0.2l-1,1.4l-0.9,1.4v0.7l1.7-0.2l1.7-0.2l-1.2,0.5l-1.2,0.5v0.2l-0.4,0.9l-0.3,0.7h-0.9l0.5,1.2l0.4,1.3
			l-0.6-0.3l-0.5-0.2L446.9,73z"/>
		<path id="path5327" class="st8" d="M476.2,90.6h-0.1l-2.3-1.1l-2.4-1.2l-6-3.2l-11-6.2l-5.2-2.9h-0.1l0.2-0.5l0.7-1.7l0.6-1.2
			l0.5-0.3l0.5-0.4l0.6-0.9l0.6-0.9l1.3-0.9l1.4-0.9l1.1,0.6l1,0.7l6,3.1l5.9,3L475,79l5.5,3.3l0.8,0.3l0.8,0.3v1.6l-1.4,2.1l-1.5,2
			l-1.3,1L476.2,90.6z"/>
	</g>
	<path id="sea-lions" d="M344.7,216c0.1,1-0.2,1.9-0.9,2.6c-1.2,0.9-6.8,0.8-10.9-0.6c-6.3-2.3-8.1-2.9-13.9-3.8s-15.9-5.7-20-7.3
		s-8.8-4.3-11-5.3c-2.4-1-5.1-1.5-7.7-1.3c-2.5,0.2-6.9,1-8.4,0.7s-0.7,0,1.2-0.7s0.8-1.3,2.1-2.4s3.3-2.6,3.6-3.7s-9-13.5-10-14.1
		c-1.3-0.8-2.6-1.8-3.7-2.9c-1-1-5.4-3.8-7.3-3.9s-1.9-0.6,0-1.7s4.6,1,5.8,0.7s1.2-2.2,1.9-1.8s1.7,3.1,2.9,3.5s3-0.6,5.5,0.2
		l11.2,4.6c2.2,1,16.6,4.8,20.3,6.4s16.4,5.6,24.4,12.1c2.6,2.2,3.4,6.5,5.4,7.8c6,3.9,6.3,6.1,7,7.6
		C342.9,213.9,343.8,215,344.7,216z"/>
	<path id="plainfin-midshipman" class="st10" d="M98.9,154.2v0.7c-0.1,0.3-0.1,0.8-0.2,0.9c0,1.3-0.4,2.6-1.1,3.7l-0.7,1.4l-0.3,0.5
		c0,0.2,0,0.4-0.1,0.6c-0.1,0.2-0.4,0.3-0.5,0.6s0.1,0.3,0,0.5s-0.3,0.2-0.4,0.3s-0.1,0.5-0.2,0.6c-0.1,0.2-0.4,0.4-0.7,0.4
		c0.1,0.3-0.1,0.4-0.1,0.6c-0.3,0.6-0.9,1-1.6,0.9c-0.9-0.1-0.5,0.7-1.1,0.6s-0.6,0.4-1.1,0.5s-0.4,0.5-0.6,0.5h-1.3l-2-0.5h-1.5
		c-1,0.6-2,1-3.1,1.3c0,0.2-0.6,0.5-1,0.3s-0.9,0.3-1.2,0.2h-0.4c-1.2-0.2-2.4-0.6-3.5-1.2h-0.4c0,0,0-0.2-0.1-0.2h-0.4
		c-0.8-0.6-1.4-1.4-2.1-2s0.8,1.2,0.7,2c0,0.4-0.1,0.8-0.2,1.2c-0.5,0.6-1.3,0.8-2,0.4c0,0.2,0,0.3-0.1,0.3
		c-1.5-1.4-2.4-3.4-2.3-5.5c-1-0.2-2-0.5-2.9-1c-1.2-0.3-2.2-0.9-3.1-1.7l-1.4-1.7c-0.6-0.7-1-1.5-1.2-2.4v-0.7
		c0.2-0.9,1-1.6,1.9-1.7c0.2-1.4,0.6-2.5,1.6-3c1-0.5,1-0.1,1.5-0.4c0.4-0.3,0.9-0.4,1.4-0.5l1.6-0.2h2.7c1.2-0.1,2.5,0,3.7,0.4
		l1.5,0.9c0.4,0.3,0.6,0.8,1.2,1c0.2,0.3,0.5,0.6,0.8,0.8c1,0.2,1.9-0.5,2.9-0.3s0.3,0.2,0.4,0.3h0.5l0.4,0.3c0.2,0.1,0.5,0,0.6,0.2
		l0.4,0.9c-0.1,0.3,0,0.3,0.1,0.6s-0.5,0.7-0.7,1.1l1.2,0.4c0.6-0.3,1-1.1,1.8-1c0.6,0.1,1.2-0.1,1.5-0.6c0.8-0.4,1.7-0.5,2.6-0.3
		l2.1-0.7c-0.1-0.2-0.3-0.4-0.3-0.6s-0.9,0-1-0.4s-1-0.1-1-0.3s-1.4-0.6-2.3-0.6c-0.3-0.3-0.6-0.4-1-0.5l-0.5-0.6
		c0.3-0.2-0.1-0.4,0-0.8s0.6-0.1,0.8-0.4s-1.2,0.2-1.9,0.2s-1.7,1.4-2.9,1.3c-1,0.1-1.9-0.3-2.6-1l-0.6-0.3c0.1-0.4-0.3-0.4-0.4-0.6
		c0-0.3-0.1-0.5-0.2-0.8c0.3-0.7,0.7-1.4,1.2-2.1c0.4-0.4,1-0.6,1.4-1h0.7c1.4-0.9,2.7,0.8,4,0.5c-0.5-0.1-0.9-0.7-0.7-1.2
		c0,0,0-0.1,0-0.1c0-0.2-0.3-0.2-0.3-0.6s0.4-0.2,0.6-0.3c0.6-0.1,1.2-0.3,1.7-0.7h0.1c0.6,0.2,1.2-0.2,1.8,0.3
		c0.9-0.1,1.7,0.1,2.5,0.4c0.2,0.1,0.4,0.5,0.7,0.6c0.6,0.2,1.2,0.5,1.8,0.8l0.9,0.9c0.4,0.4,0.8,0.6,1,1s0.1,0.3,0.2,0.4l0.7,1.1
		c0.1,0.5,0.3,1,0.4,1.4C98.1,151.6,98.7,152.8,98.9,154.2z"/>
	<path id="military-sonar" d="M732.4,71.5c-9.9-0.6-19.8-1-29.8-1.4c-1.6-0.1-2.5-0.6-2.3-2.5l5.6-1.3c0-0.2-0.1-0.3-0.1-0.5
		l-3.1,0.3c-1.1,0.2-2.1,0.3-3.2,0.2l-5.6-0.6c-0.3,1.6-0.4,2.7-0.6,3.9l-7.9-0.5c-1.4,0-1.9-0.5-2-1.8c-0.3-3.5-0.8-7.1-1.2-10.6
		c-2-0.3-2.5-1.9-1.6-4.9h-15.9c-0.5-3.5-0.9-6.9-1.3-10.1l9.1-1l-1.2-2.7c-0.4-1.4-1.8-2.3-3.2-2c-1.6,0.2-2.3,1.3-2.2,2.9
		c0.1,0.5,0.2,0.9,0.2,1.4l-2.3,0.2c-0.2-2.1-0.5-4-0.8-6l7.1-2.2c-2.1-0.2-4-0.1-5.9-0.1s-1.4-0.3-1.5-0.6c-0.6-2.2-1-4.4-1.5-6.6
		s0.6-2,1.8-2.1c1.6-0.1,3.2-0.3,4.8-0.6c0.6-0.1,1.1-0.3,1.6-0.6l-0.2-0.5h-8.5c-0.5-2.2-0.5-2.2,1.1-3.5c0.4-0.5,0.7-1.1,0.9-1.7
		l-2.4-0.3c-0.3-2-0.6-4-0.8-6h-0.6V16l-0.7-0.3c-0.2-0.2-0.4-0.3-0.2-0.2c0.4,1.7,0.9,3.6,1.5,5.7l-9.3,1.3c0,0.1,0.1,0.3,0.1,0.4
		l6.5,0.3c0.6,3.3,1.2,6.3,1.8,9.5l-8.8,0.7V34h1.8c2.1,0,4.2-0.1,6.2,0c0.9,0.1,1.7,0.3,2.4,0.8c0,2.1,1.4,4.2,0.1,6.2l-0.3,0.2
		c1.7,0.2,2.1,1,1.3,2.5h-5.2c-3.2,0-3.2,0-3.5,3l-0.4,0.4c-2.8-0.7-2.2,1.5-2.3,3c-1.3,0.2-2.5,0.6-3.7,1V54l-4.9,0.3
		c-0.9-1.9-2.5-3.9-2.9-6.1c-0.9-5.5-1.3-11.1-2-16.7c-0.2-1.5,0.4-2.3,1.8-2.4c1.3-0.1,2.7-0.2,4-0.5c0.4,0,1.2-0.6,1.2-0.9
		c-0.1-1.1-0.4-2.2-0.7-3.3h-0.2c0,1,0.1,2,0.1,3.2l-6.7,0.7c-0.5-3.9-0.9-7.6-1.4-11.2h-1c0.3,3.7,0.6,7.4,1,11.2l-6.8,0.6
		c-0.4-1.6-0.8-2.9-1.2-4.2c-0.1,1.2,0,2.4,0.1,3.6c0.1,1.2,0.7,1.8,2.1,1.7h5.4c0.2,0.4,0.3,0.7,0.4,1.1c0.5,6,1,12,1.6,18
		c0,0.5-0.1,1-0.3,1.5c-0.9,2.3-1.8,4.6-2.5,6.9c-0.2,1.1-1.3,1.9-2.4,1.7c-0.1,0-0.1,0-0.2,0c0-1.5-0.5-3.2,0.1-4.3s1.4-1,0.4-2.1
		s-0.5-2-1-2.8c-0.5-0.8-1-1.4-1.7-2c0-0.1,0.1-0.2,0.2-0.3l-2.8-0.4c-0.1-0.8-0.3-1.6-0.5-2.6l-7.3,0.8c0.1,0.9,0.1,1.6,0.2,2.3
		c-2.1,1-1.9-1.3-3.2-2.3v3.7h-0.5c0.1-0.4,0.1-0.9,0.2-1.5h-2.4v6.6l-1.6,0.2c0.2,1.9,0.4,3.8,0.5,5.8c-4.1-1-7.6,0.1-11.1,1.2
		s-8.2,2.4-12.3,3.6v0.8c0.4,2.4,2.2,3.3,4.4,3.6c10.3,2.6,20.5,5.7,31,7.5c24.8,4.2,49.8,7.9,74.7,11.5c8.5,1.2,17.1,1.4,25.7,2.1
		c3.1,0.3,6.2,0.9,9.3,1.3h0.4l11.4-13.6c1.3-1.6,2.4-3.3,4.1-5.4C742.9,72.5,737.7,71.9,732.4,71.5z M659.9,32.3
		c-1.8-2.5-1.6-5.4-1.6-8.3c0.9,0.3,0.8,0.3,1.1,3.9c0.2,1.5,0.6,2.9,1,4.3L659.9,32.3z"/>
	<path id="humpback-whales" d="M434.3,220c-0.2-0.6,3.4-2.6,4.4-3l5.2-2.4c0.8-0.4,3.5-1,4.5-1.5c0.6-0.2,1.1-0.6,1.5-1
		c0.7-0.6,1.6,0.1,2.9-0.6s5-1.9,6.4-2.4c1.8-0.7,3.6-1.3,5.4-1.8c1.5,0,3-0.2,4.5-0.5c1.1-0.3,14.2-3.1,19.1-4s33.9-2.2,39.8-1.9
		s28.2,1,29.9,0.9s3.4-1,5.1-1c1.6,0.1,3.3,0,4.9-0.2c1.2-0.3,3-0.6,4.2,0.1s-3.1,0.8-2,2.8s3.9,2,5.8,2.9s12.4,3.3,16.3,5.6
		s13,6.8,14.9,7.8s6.5,4.6,8.4,4.7s9.7-2.1,10-1.3s-0.9,1.2-1.1,2s-1.9,1.6-1.7,1.9s2.1-0.3,3.2,2c0.1,1.3,1,2.3,2.2,2.7
		c1.2,0.2,1.5,2.6,2.6,4.5s1.2,3.8,4.7,5.2c0.4,0.2-1.7,0.8-4.7,1s-7.4-2.1-9.5-3.9s-9.6-9.3-9.6-9.3l-15.7,0.4
		c-3.8-0.1-4.8-0.5-7.1,0.7s-7.8,0.7-10.7,0.9s-9.4,2-13.9,2.6s-20.1,1.5-22.8,1.7s-17.2-0.3-17.2-0.3l3.6,3.3
		c1.9,1.8,9.6,5.3,12.4,6.8s5.9,2.2,4.1,3.6s-5.1,0.9-7.6,0.5c-4.1-0.7-8-2.1-11.6-4.1c0,0-2.5-1.7-3.4-0.9s-0.8,1.2-2.8,0.6
		s-9.6-2.9-11.2-3.8s-5.2-3.4-6.4-3.7s-1.7-1.2-3.5-1.8s-3.2-3.2-3.2-3.2s-10.3-1.2-13.3-2s-12.7-3.3-15.5-3.6s-10.3-1.6-13.3-1.5
		s-2-0.8-3.1,0.2s-0.8-0.2-2-0.2s-1.5,0.7-2.1,0.7s-1.1-0.8-1.8-0.4s-4.9,0.4-5.3,0.5s-0.6-0.8-1.4-1.2s0-0.3-0.7-1s-1.6-0.7-2-1.5
		s0.3-1.7,1.4-2.1s16.7-6.1,19.6-6.4s15.4-2.1,17.5-0.9s7.5,5.1,9,5.7c1.6,0.7,3.2,1.4,4.9,1.9l2.6,0.6c-2.1-0.5-4.1-1.2-6-2.1
		c-1-0.3-1.9-0.8-2.8-1.4c-4-2.2-5.7-4.4-8.9-5.1s-16.3,1-19.3,1.7S434.4,220.6,434.3,220z"/>
	<g id="fin-whales">
		<path d="M606.4,131.3h19c0.8,0.2,1.7,0.3,2.5,0.3c14,0.6,28,2.1,41.8,4.7l34,6c3.9,0.7,8.2,0.4,11.8,1.5
			c10.3,3.1,20.3,6.7,30.4,10.1c2.6,0.8,4.8,2.4,6.4,4.5v1.1c-1.6,0.6-3.2,1.1-4.8,1.4l-24.2,1.7c-13.5,1-27.1,1.2-40.7,0.7
			c-3.6-0.2-7.1-0.4-10.1,1.5c-0.9,0.5-1.9,0.8-3,0.9c-2.1,0.4-4.2,0.6-6.3,0.8c0.1-0.5,0.3-0.9,0.6-1.2l0.8-1
			c-5.2,2.3-10.9,3.2-16.6,2.6l9-5.7l-2.2-0.3c-11.7-1.4-23.5-2.7-35.2-4.3c-8.7-1.1-17.2-2.7-26.1-2.7s-16.3,0.8-23.9,3.8
			c-5.2,2.1-10.7,3.4-16.1,5.1c-0.7,0.2-1.4,0.5-1.9,1.1c-2.1,3.5-5.1,6.3-8.7,8.2h-1.4l-2.4-3h-9.3c-1.9-0.1-3.8,0-5.7,0.1
			c-3,0.1-6,0.5-9,0.7v-0.3c2.2-1.3,4.5-2.4,6.8-3.4l19.4-7.1c1.1-0.3,2.1-1,2.7-2c2.5-3.9,6-7.2,10-9.5c3.8-2.1,8-3.8,11.9-5.8
			s5.8-3,8.6-4.6s1.2-1.6-0.3-2.3l-2.7-1.8l3.3-0.2c3,0.1,6,0.8,9,0.6C591.3,132.9,598.9,132.1,606.4,131.3z"/>
	</g>
	<path id="dolphins" d="M311,107.4h1.3c1.1,0.4,2.2,0.9,3.1,1.7c1.9,1.5,3.5,3.4,4.7,5.5c0.3,0.6,0.9,1.2,1.5,1.5l0.3,0.2l4.3,1.7
		c4,1.5,7.8,3.2,11.5,5.3c1.2,0.6,2.3,1.5,3.2,2.5c0.3,0.4,0.7,0.6,1.1,0.8l0.8,0.5c1.4,1.2,2.4,2.6,3.2,4.2
		c0.2,0.4,0.3,0.9,0.4,1.3c0.1,0.5,0.1,0.9,0.1,1.4c0,0.6,0.2,1.3,0.7,1.7l0.5,0.6c0.3,0.4,0.6,0.8,0.8,1.3l0.3,0.8v0.3h-0.1
		c-0.1,0.6-0.4,1-0.9,1H347c-0.8-0.3-1.5-0.6-2.2-1.1c-0.7-0.5-1.5-0.9-2.3-1.2c-1.7-0.6-3.5-1.1-5.3-1.3c-1.2-0.2-2.5-0.2-3.7-0.2
		c-0.3,0-0.6,0.1-0.9,0.3l-1.3,1.4c-0.8,0.8-1.7,1.5-2.8,1.8c-1.1,0.4-2.3,0.5-3.5,0.4l-1.2-0.2l-0.3-0.3c0.1-0.1,0.1-0.3,0.2-0.4
		l1.3-1c0.8-0.5,1.5-1.1,2-1.9l0.6-0.9h-9.1l-3-0.2l-2.5-0.3l-2.7-0.4l-2.4-0.4c-1.5-0.4-3.1-0.7-4.7-0.9h-1.6l-1.7,0.4l-7.6,2.1
		l-3.8,0.8c-0.9,0.2-1.7,0.3-2.6,0.3l-0.6,0.2l-0.9,0.8c-1.2,1.2-2.5,2.2-3.9,3.2c-1.2,0.8-2.7,1.2-4.1,1.1c-0.2,0-0.5-0.1-0.6-0.3
		l0,0l0.5-0.4l0.9-0.5c0.5-0.3,1-0.7,1.3-1.2l1.6-2.7c0.2-0.3,0.4-0.6,0.8-0.6c-0.3-0.4-0.3-0.9-0.1-1.3c0-0.1-0.1-0.2-0.1-0.4
		c-0.1-0.1-0.1-0.2,0-0.3c0,0,0,0,0,0h3.2l0.5-0.7c1.6-2.4,3.4-4.6,5.5-6.6c1.8-1.7,3.8-3.1,6-4.1l8.9-4c1.4-0.6,2.8-1.1,4.1-1.8
		c0.9-0.6,1.7-1.3,2.4-2.1c0.6-0.8,0.9-1.7,0.9-2.6c0.1-1.2-0.3-2.3-1.2-3.1l-0.6-0.5c-0.2-0.2-0.3-0.6,0-0.8
		c0.1-0.1,0.1-0.1,0.2-0.2L311,107.4z"/>
	<path id="bocaccio" d="M521,350.5h-0.4l-1.6-0.9c-1.8-1.3-3.4-2.8-4.8-4.5c-1.5-1.9-3.7-3.1-6.1-3.4h-1v0.2h0.2l0.8,0.5
		c0.7,0.4,1.1,1.2,1.1,2c0,1-0.2,2-0.5,3c-0.1,0.4-0.3,0.8-0.5,1.2c-0.2,0.4-0.7,0.6-1.1,0.4c0-0.1,0-0.1-0.1-0.1l0,0l-0.7-0.4
		l-3.5-3l-0.6-0.7l-0.4-0.2c0,0.1-0.1,0.3,0,0.4v0.7c-0.8-1-1.4-2.1-1.9-3.2l-0.3,0.7l-0.4-0.9c0-0.2-0.1-0.3-0.3-0.3l-3.3-0.6
		c-1-0.2-1.9-0.5-2.8-0.9l-4-1.6c-0.3-0.2-0.4-0.1-0.3,0.3l0.3,0.6l0.8,1c0.7,1.1,0.7,2.6-0.1,3.7c-0.7,0.8-1.6,1.5-2.6,2
		c-0.2,0.1-0.4,0-0.5-0.2c-0.1-0.2-0.2-0.3-0.2-0.5s-0.3-1-0.4-1.5c-0.3-1-0.4-2-0.3-3c0.1-1,0.1-2,0.3-3c0-0.4-0.2-0.7-0.5-0.9
		l-0.6-0.4c-2.1-1.1-4.1-2.3-6.1-3.6c-1.8-1.2-3.6-2.4-5.3-3.7c-0.5-0.4-0.9-0.9-1.2-1.4l0,0c0-0.2,0.1-0.4,0.2-0.6
		c0-0.4,0.1-0.4,0.4-0.2l1.8,0.8l0.5,0.2l0,0c0-0.1-0.1-0.3-0.1-0.4l-1.1-1.5c-0.3-0.5-0.3-0.7,0.2-0.9l4.1-1.9
		c2.7-1.2,5.5-1.9,8.4-2.2l1.8-0.2c0-0.6-0.3-1.1,0-1.7l0.3,0.8c0.1,0.3,0.3,0.4,0.5,0.1l0.6-1.2c0.2-0.2,0.2-0.4,0.3-0.6
		c0.1,0.1,0.1,0.2,0.1,0.3c0,0.5,0,1,0.1,1.5v0.2h0.2l2.1-2.1l0.8-0.6c-0.1,0.2-0.2,0.5-0.2,0.7c-0.2,0.4-0.2,0.8-0.1,1.2
		c0.1,0.3,0.2,0.3,0.5,0.1l0.8-0.3l1.4-0.8c0,0.5-0.3,0.9,0,1.4c0.7-0.4,1.4-0.7,2.2-0.7c-0.1,0.6,0,1.1,0.3,1.6
		c0.6-0.3,1.3-0.4,2-0.4c-0.3,1-0.3,1-0.1,1.4c0.5-0.3,1.1-0.3,1.6-0.1c-0.1,0.4-0.3,0.7-0.1,1.1l1.8-0.2L503,324
		c-0.1,0.2,0,0.3,0.3,0.3h0.8l-0.2,1.1h1.1c-0.3,0.3-0.5,0.5-0.5,0.9h0.7c0,0.2-0.1,0.3-0.2,0.5s-0.1,0.6,0.4,0.7l0,0
		c-0.3,0.3-0.3,0.6,0.2,0.7l0.6,0.3l4.1,1c0.8,0.1,1.5,0.4,2,1c1.2,1.3,1.7,3,1.6,4.7c0,1-0.4,1.4-1.4,1.5h-1.6l0.7,0.5
		c0.7,0.5,1.4,0.8,2.2,1h3.3l5-0.2c1,0,2,0.1,3,0.4c0.5,0.2,0.6,0.4,0.5,0.8l-0.6,1.1l-1.6,2c-0.6,0.6-1,1.4-1.1,2.2
		c-0.3,1.8-0.7,3.7-1,5.5L521,350.5z"/>
	<path id="blue-whales" d="M522,283.5c1,0,1.9,0,2.9,0c8.8-0.9,17.3-3.2,25.3-6.8c1.8-0.9,3.7-1.6,5.7-2c1.9-0.3,3.8-0.2,5.6,0.2
		c16.7,3.7,33.6,2.9,50.4,2.8c10.4-0.1,20.8,0.9,31,2.9l33,6.2c1,0.2,2,0.5,2.9,0.8l-3.9,2.7c-1.3,0.8-2.6,1.5-3.8,2.4
		s-0.7,1.2-1,1.7s1.4,0.8,2,0.7c3.5-0.9,7.3-1.2,10.3-3c5-2.9,9.9-2.1,15.1-1.6c9.5,1,19.1,1.9,28.7,2c6.3,0.1,12.7-1.1,19-2.1
		c10.6-1.4,21-4.4,30.7-8.8c3.3-1.4,6.4-3.1,9.3-5.2c2.7-2,1.7-5.2-1.5-6.6c-6.4-3-13.4-3.8-20.2-5.2s-10.5-2.6-15.7-4
		c-0.6-0.3-1.3-0.4-2-0.4c-7.5,1.2-14.5-1.3-21.5-2.8c-16-3.5-31.9-7.4-48.2-9.2c-11.3-1.3-22.6-2.9-34-2.1
		c-9.2,0.7-18.4,2.5-27.6,3.5c-4.6,0.4-9.2,0.1-13.9,0.3c-0.4,0-1.2,1.1-1.1,1.2c1.5,2.1-0.2,2.7-1.5,3.1l-11.9,2.8
		c-5.2,1.3-10.5,2.3-15.5,4s-11.1,4.6-17.2,7.1c-5.1-3.5-10.7-6.1-16.6-7.8c1.5,3,3.4,5.8,3.1,9l-18.2,13.4L522,283.5z"/>
</g>
</svg>
